PathFileType	4	(X/Y/Z)	48_1_25_p0_0-314.trc
DataRate	CameraRate	NumFrames	NumMarkers	Units	OrigDataRate	OrigDataStartFrame	OrigNumFrames
59.0	59.0	7	27	m	59.0	78	315
Frame#	Time	RHip			RKnee			RAnkle			RBigToe			RSmallToe			RHeel			LHip			LKnee			LAnkle			LBigToe			LSmallToe			LHeel			Neck			Head			Nose			RShoulder			RElbow			RWrist			RThumb			RIndex			RPinky			LShoulder			LElbow			LWrist			LThumb			LIndex			LPinky			
		X1	Y1	Z1	X2	Y2	Z2	X3	Y3	Z3	X4	Y4	Z4	X5	Y5	Z5	X6	Y6	Z6	X7	Y7	Z7	X8	Y8	Z8	X9	Y9	Z9	X10	Y10	Z10	X11	Y11	Z11	X12	Y12	Z12	X13	Y13	Z13	X14	Y14	Z14	X15	Y15	Z15	X16	Y16	Z16	X17	Y17	Z17	X18	Y18	Z18	X19	Y19	Z19	X20	Y20	Z20	X21	Y21	Z21	X22	Y22	Z22	X23	Y23	Z23	X24	Y24	Z24	X25	Y25	Z25	X26	Y26	Z26	X27	Y27	Z27	
78	1.3220338983050848	0.1982247755975431	0.4287977555274517	0.6775301397125073	0.17096802135849415	0.574863582580361	1.1534929858454874	0.138145094984804	0.6465075223739087	1.5275854717272943	0.10940353220279433	0.48893237707880743	1.565509160931934	0.172763438303178	0.4719613127563315	1.5560243060373613	0.12949380719254616	0.7571402923385369	1.5967182140881768	-0.029422706948365185	0.5250002376175835	0.6728845682940899	-0.037403494682904895	0.605793326006359	1.124744962629595	-0.021750811562610304	0.6882511399841221	1.5332459992165166	-0.059967316187805896	0.47633137044688684	1.5236672996025384	-0.10047189455594449	0.5723616054236043	1.5517027806240904	-0.001216376662780311	0.7400052834027192	1.586604033345643	0.11037949613987474	0.4578410394098569	0.17079556664177112	0.12119853947196003	0.38365510200630293	-0.07931949007954726	0.09828643807405348	0.3244169256706748	0.05958677747990141	0.2617145320287782	0.4323677601944364	0.2701189276155167	0.30899324516303805	0.4547319537270366	0.535752547391533	0.2505657234383074	0.38486308068952496	0.7543706410738498	0.1726921649072421	0.36494756599383077	0.8465711812124664	0.1808055334606207	0.36935759442232446	0.8702318212454577	0.23294404159769858	0.3842354333114574	0.879280332003255	-0.06113627623973228	0.45557820580896247	0.247930724066281	-0.12667893554893783	0.5177537359268513	0.5049508778319748	-0.11112519876163868	0.4456936313282746	0.7385741841264394	-0.05416280755944598	0.3882485293613373	0.8238936126469295	-0.05962548207724518	0.37748417353511343	0.8329383672379553	-0.1322763828090098	0.4157793287924352	0.8307336149107256
79	1.3389830508474576	0.19662427225874787	0.44384988731365227	0.6803724255966616	0.1709178347857015	0.5748444805611068	1.1535657081745605	0.1381601368088698	0.646547362232188	1.5276099960695524	0.109517433759364	0.48921371462505897	1.5654986335142504	0.1729919980347402	0.4722957478544433	1.555916691707557	0.12945914253672577	0.7572780906317509	1.5965995559002406	-0.028920967340719087	0.5269725333063717	0.6773536182897132	-0.036691270482721354	0.6077573479112698	1.1299877405079217	-0.021878838011009538	0.6882410084449474	1.5333445556190142	-0.06004135902838599	0.47603479529879894	1.5234706213141025	-0.10037748270939935	0.5721273273192227	1.55149222625125	-0.0013366270882187717	0.7408705760187739	1.581524501009667	0.1101656423059014	0.4566515010245275	0.16718362325438663	0.12143356285261311	0.3848362382990162	-0.07653256011840158	0.09848615087188085	0.3248169699568238	0.05954085721326239	0.26154392268401494	0.4319953512591316	0.270149080443136	0.30842119800334694	0.4535608930012179	0.5317927883114948	0.25462641171680367	0.3837270802689322	0.7502546925894871	0.17749889129919774	0.36604599400981525	0.8466480014573541	0.18138738819475297	0.36975245221881264	0.8697728297847978	0.23677056543814964	0.41173089290452913	0.8874139760005771	-0.06115614067327755	0.4554677011665535	0.24789558701298361	-0.13019163005464682	0.5316710518841962	0.506577023281805	-0.11135464183849055	0.4456730669148769	0.7385201672577424	-0.054287609198177836	0.38872627280052907	0.8239609611462955	-0.06676634662070274	0.3904861478577496	0.8359118978694748	-0.1317909314763616	0.44103760315684654	0.8368836236400221
80	1.3559322033898304	0.19649792353231402	0.4436142221359279	0.6803855916850472	0.17090888110883656	0.5749174798209298	1.15359271611145	0.1329822712497064	0.632574346651267	1.5211076020418728	0.1094659309190188	0.48916607427460007	1.5655985326451503	0.17767536501483353	0.4843198848621919	1.562097378342644	0.13042532486570912	0.7591679397604163	1.6015073791067809	-0.029067761183165865	0.5265631764445365	0.6770721258363129	-0.037347260217755585	0.6057782365717677	1.1248337865731917	-0.02181723728718808	0.6880899730336663	1.5332993271476272	-0.06011823808398006	0.4759308204693541	1.5235375708068581	-0.10441901197516015	0.5586081990692144	1.5451238493947659	0.000759244835076659	0.7415345990121303	1.5801587771566001	0.11009936887923541	0.45660116378601917	0.16731904944482026	0.12145573839205677	0.38484723266791393	-0.07646248224358357	0.09840142981140283	0.3246129296697314	0.05953710493367641	0.2612234192319682	0.43180770841146043	0.2741266645718419	0.3100569194517932	0.4388506019286665	0.5298703014103151	0.2579003009075305	0.371117866096076	0.7480750853595108	0.17777850810832463	0.3660335906608434	0.8465332941882455	0.18227842486086004	0.37061573297782224	0.8736934019659729	0.24087999002460667	0.41072081623560147	0.8791942660666958	-0.06102706924824475	0.45499269091748956	0.24417319859328587	-0.12961473437352777	0.5317932495587999	0.5032245241400326	-0.11144055149974301	0.4460461031834277	0.7385813254776764	-0.05444317287243354	0.3890181246745324	0.8240688065298681	-0.06704551109162049	0.3908649388765982	0.8360246431103278	-0.13927330288576975	0.4176780528231551	0.8307209913305778
81	1.3728813559322033	0.19100593773197833	0.4307250034443413	0.6741453272218346	0.17089410891739745	0.5750331745583465	1.1535157406495538	0.13387033132910522	0.6344701380361826	1.5261841389492823	0.1094412426566945	0.4890208287363915	1.5655658872537273	0.17279952151483796	0.47203887274031003	1.5560033282843675	0.1304148567305735	0.7592278006216971	1.6016402262772338	-0.03385400937181138	0.5123250658625589	0.6701523349003015	-0.03665168441764622	0.6077200619576273	1.1301237154885333	-0.02067326662475924	0.687740356078921	1.5290974869161371	-0.06006502635656237	0.47610821737319664	1.5235755312859944	-0.10045534751772756	0.5724057994905994	1.5517746421558942	0.000956998980774523	0.7425135935571832	1.5805219045435517	0.11035556015593326	0.45776470991357815	0.17088628453632743	0.12146024965836935	0.3847653723995153	-0.0763178067124546	0.09438801957838094	0.3234930136157363	0.05946412249850836	0.26129294539125153	0.4319972930344698	0.27772944173758135	0.31382977332657797	0.4649145875453367	0.533315708945957	0.26071538831740404	0.3836784092749494	0.7433717763655624	0.17837588048773942	0.36620948958659094	0.842704229671224	0.18229643997904313	0.37152824698798126	0.8734919027064109	0.23631575409123093	0.4397591676944298	0.8860662290127396	-0.06123131208575883	0.45484053798279006	0.24769218492640577	-0.12938999643395285	0.5306649913656091	0.4957300278500746	-0.11149774820063117	0.44624596638066727	0.7385179516546828	-0.05436946051968467	0.3894119154660457	0.8240136833295727	-0.06702700591983449	0.391473504042007	0.8361048204026387	-0.13553501727049727	0.4298778827923975	0.8339019895318533
82	1.3898305084745763	0.19092750170031556	0.4306063636546442	0.6695348450501792	0.1710004538505738	0.5754801914471201	1.1500724980219847	0.1338305584480784	0.6346783479504465	1.5261862736001717	0.10942828178877628	0.48869629615893545	1.5654143465610686	0.1728604319561746	0.47181270355269134	1.555807125015153	0.13038127861883314	0.7593420925101015	1.6017538185453435	-0.03714230971007008	0.5271425678574593	0.6686682777990477	-0.0374738810590016	0.6057587025693383	1.1247309272608672	-0.021957263573645858	0.6879846351415874	1.5333162841516432	-0.06005956058335724	0.47622006871846334	1.5234695932590732	-0.10041382412908718	0.5721051967545371	1.5514577880880573	0.0010025007186886808	0.7428019189956094	1.580636702501759	0.11032547578693072	0.4574538763842296	0.17070628759780299	0.125566915771643	0.3947819732274471	-0.07682018530815339	0.09880760604524179	0.33430209711751846	0.05918143364466262	0.26144793896566854	0.43174941338434497	0.27395395865161626	0.3150468904174625	0.4493419544351129	0.5196617182022248	0.26082432443906295	0.3836525469599142	0.7431628040872084	0.17569305420878456	0.3785491564033345	0.8379298132501827	0.18181070777375055	0.3713970698131488	0.8655866586184697	0.2362307255983807	0.44037412976779805	0.8819221389775947	-0.06502524947443548	0.4421890792158893	0.24333132994964943	-0.13254633051266249	0.5460593477505468	0.5013244271518108	-0.11133344075879857	0.4462633435596998	0.7385549803744798	-0.05433211232401521	0.38931723724780826	0.8239294841564504	-0.07044792552873852	0.40261239854246716	0.8341309089791655	-0.1318035331128694	0.44196981736925944	0.8370437884470865
83	1.4067796610169492	0.1917538836862392	0.4326198265203012	0.6735576509007221	0.17103692768823903	0.5749520476030006	1.1534743564051937	0.13293247409958647	0.6326135010552119	1.521092809575693	0.109443194075573	0.4893152081050556	1.5611274678067693	0.17270633316412262	0.4714620590574389	1.5558017210931072	0.12917144826717664	0.7598332194572446	1.6068629000471948	-0.03210100155213375	0.5310224351828997	0.6734293608022374	-0.03680095518136754	0.6077320375849004	1.130130169099465	-0.022059800218840284	0.6878904379663044	1.533316810873852	-0.060123601043550634	0.47618735868929846	1.5233962244613544	-0.1004562636228472	0.5720227816816783	1.5514292940105072	3.317296708165998e-05	0.7442426761297771	1.5857991301781342	0.11034805515854947	0.45738997257765085	0.17070577067039824	0.1256484670742709	0.3947629341163344	-0.07693510838214628	0.09892317039386778	0.3343660738136475	0.05916219497070286	0.2614568287913546	0.43176096059515007	0.2739931411194672	0.3197534394047194	0.45034477337925705	0.5200303833237099	0.25685006715999853	0.3838476918645262	0.7395774053800964	0.17091653092802853	0.37594591987985504	0.8294715893234553	0.17794764700701526	0.36869129968995235	0.8558843159972469	0.22648170682202973	0.42827795146238545	0.8762604354357951	-0.06505859568458658	0.44202998880226513	0.24332488421641615	-0.1292640107883172	0.5323556096966323	0.49971934822114633	-0.11053518804286448	0.4462799038092912	0.7313897906052456	-0.05462402559990114	0.3881895937830155	0.8162319039573517	-0.06294919644633229	0.3900807763844234	0.8274801189286418	-0.12775088633086343	0.45400870624929907	0.8402991659888455
84	1.423728813559322	0.19131167439172547	0.43216316857270254	0.6733850037972908	0.1598701529463969	0.558236205950633	1.14280025091763	0.14302543995867217	0.6479269559034182	1.5285746946646144	0.10970902731807379	0.48952411356939907	1.560986329217292	0.1779437963270709	0.48435272016756814	1.561958959258756	0.12817983117568513	0.7576253389510891	1.601840640077704	-0.03406925820797946	0.5123109486722027	0.6659658257524385	-0.03758908868423625	0.6057169214580114	1.1246106134269438	-0.02109003295374056	0.687550074748575	1.5290225907986943	-0.06010650915673087	0.47629708192263104	1.5233668072322784	-0.09939922737008129	0.5713526231033168	1.5473866165301793	-0.0016450128105796335	0.7486555321768391	1.5849248124947877	0.11044601020725332	0.45759170533197313	0.1707763189130903	0.12559041855452038	0.39484144868682464	-0.076906750671416	0.09872622752516567	0.334465873303017	0.05927631069411576	0.26210411176796916	0.43199223505877365	0.27369276813558213	0.32042233026215905	0.4513035460087201	0.5238994159683316	0.25896902437959735	0.3700907679910423	0.7330690203664374	0.17043667044094127	0.3742809285190181	0.8213514900933288	0.17703288307754786	0.36689216380451084	0.8513041217980286	0.22343764025616344	0.4009663740293967	0.8632566059979379	-0.060969206319165	0.4540342444553681	0.24373802964418137	-0.12923448597951034	0.5324010188008214	0.49560540741272296	-0.1104488574694593	0.44617975407137617	0.731275694618657	-0.05083177641800803	0.3893566932034401	0.8164705893165893	-0.06622182598275174	0.40260696084468917	0.830181705546671	-0.1354262004304295	0.4302218904592289	0.8338819392869168
